<?xml version="1.0" standalone="no"?><!DOCTYPE svg PUBLIC "-//W3C//DTD SVG 1.1//EN" "http://www.w3.org/Graphics/SVG/1.1/DTD/svg11.dtd"><svg class="icon" height="512" viewBox="256 0 512 768" version="1.1" xmlns="http://www.w3.org/2000/svg"><path d="M333.857757 355.741539 645.986461 355.741539C656.434637 355.741539 664.874198 347.293539 664.874198 336.870682 664.874198 326.422506 656.434637 317.966066 645.986461 317.966066L647.969757 317.966066C648.68712 311.957099 649.024704 305.855297 649.024704 299.669099 649.024704 244.617846 621.064438 196.115692 578.571251 167.564659L568.089318 223.687736 560.527472 222.27833 569.380573 174.822681 575.305142 145.689319 540.019341 140.946286 539.090989 148.761319 524.448352 244.288703 517.586989 243.233758 517.527914 243.706374 513.603517 243.706374 531.40255 128 445.445626 128 461.826813 243.697934 457.927738 243.697934 457.927738 243.664176 453.826109 244.280264 439.377584 149.925978 439.419779 149.875341 438.390154 140.954725 403.104352 145.697758 408.125891 170.526945 418.093011 223.907165 410.531165 225.299692 399.939517 168.51833C358.180573 197.187516 330.785757 245.200176 330.785757 299.677539 330.785757 305.863736 331.190858 311.965539 331.866022 317.974506L333.866198 317.974506C323.434902 317.974506 314.970022 326.430944 314.970022 336.87912 314.953143 347.293539 323.426461 355.741539 333.857757 355.741539L333.857757 355.741539ZM331.368086 435.824528C331.384966 436.077715 331.671914 443.808352 335.976086 451.555869 339.664176 459.851955 348.880176 468.148045 362.704176 471.836131 363.624086 477.364045 367.312176 490.276573 373.768438 506.860307 382.064528 528.060483 396.808438 552.948749 420.77679 571.389187 422.625056 573.23745 445.665056 595.357539 486.225584 595.357539 503.73767 595.357539 523.098022 591.66945 546.146461 580.605187 546.146461 580.605187 560.898813 573.23745 577.490989 555.725363 593.154813 538.213274 610.675341 511.476749 618.051517 472.764483 621.739603 472.764483 627.267517 470.916221 633.715341 467.236573 642.011427 461.708659 650.307517 452.484221 653.075693 434.972131 653.075693 434.972131 653.075693 425.756131 649.387603 415.620221 647.539341 411.012221 644.771165 405.475869 640.163165 401.796221 636.475078 399.028045 631.875517 396.268307 626.339165 395.339955L627.250637 395.339955 631.841757 364.949098 343.326944 364.949098C346.373626 382.79033 350.846592 395.694416 351.648352 398.108131 349.800086 399.028045 347.040352 400.876307 344.272176 403.636045 338.752704 410.05855 331.384966 420.186022 331.368086 435.824528L331.368086 435.824528ZM651.227427 614.70945C650.307517 614.70945 650.307517 613.789539 649.387603 613.789539 646.619427 612.869626 643.859693 611.021363 641.091517 610.10145 616.203251 599.957098 591.314989 592.589363 566.426726 588.892835 555.354022 598.108835 547.066374 602.725274 547.066374 602.725274 524.026374 613.789539 504.666022 617.469187 487.145494 617.469187 446.584966 617.469187 423.536528 595.349098 421.696704 593.500835 420.77679 592.589363 419.85688 591.661011 418.928528 590.741098 388.512352 596.269011 363.615648 603.645187 348.871738 608.253187L348.871738 607.333274C348.871738 607.333274 342.423914 609.181539 333.207914 613.789539 305.551473 626.693626 250.247033 659.877978 231.806593 725.326768L231.806593 824.888262C231.806593 824.888262 448.42479 965.921757 756.308397 824.888262L756.308397 727.166592C755.396922 727.166592 744.332659 657.109802 651.227427 614.70945L651.227427 614.70945Z" /></svg>
